<svg width="7" height="7" viewBox="0 0 7 7" fill="none" xmlns="http://www.w3.org/2000/svg">
<path d="M5.98782 4.2403C5.8247 4.16899 5.63474 4.24345 5.56348 4.40656C5.20248 5.23276 4.38676 5.7666 3.48534 5.7666C2.23552 5.7666 1.21873 4.74982 1.21873 3.5C1.21873 2.2502 2.23552 1.2334 3.48534 1.2334C4.38155 1.2334 5.19539 1.76297 5.55862 2.58253C5.63074 2.74525 5.82109 2.81876 5.98382 2.7466C6.14655 2.6745 6.22 2.48412 6.14787 2.3214C5.68143 1.26892 4.63632 0.588867 3.48536 0.588867C1.88015 0.588867 0.574219 1.89479 0.574219 3.5C0.574219 5.10521 1.88015 6.41113 3.48536 6.41113C4.64296 6.41113 5.69051 5.72559 6.1541 4.66463C6.22537 4.50154 6.15093 4.31155 5.98782 4.2403Z" fill="white"/>
</svg>
