<svg width="34" height="34" viewBox="0 0 34 34" fill="none" xmlns="http://www.w3.org/2000/svg">
<rect width="34" height="34" rx="2" fill="#EF1AD3"/>
<g clip-path="url(#clip0_10_294)">
<path fill-rule="evenodd" clip-rule="evenodd" d="M16.4964 5.00748C13.3741 5.00748 12.9826 5.02071 11.7564 5.07666C10.5328 5.13247 9.69707 5.32683 8.96581 5.61104C8.20982 5.9048 7.5687 6.2979 6.92954 6.93701C6.29042 7.57617 5.89732 8.2173 5.60357 8.97329C5.31935 9.70454 5.12499 10.5403 5.06918 11.7639C5.01323 12.9901 5 13.3816 5 16.5039C5 19.6261 5.01323 20.0176 5.06918 21.2438C5.12499 22.4674 5.31935 23.3032 5.60357 24.0344C5.89732 24.7904 6.29042 25.4316 6.92954 26.0707C7.5687 26.7098 8.20982 27.1029 8.96581 27.3967C9.69707 27.6809 10.5328 27.8752 11.7564 27.9311C12.9826 27.987 13.3741 28.0002 16.4964 28.0002C19.6186 28.0002 20.0101 27.987 21.2363 27.9311C22.46 27.8752 23.2956 27.6809 24.0269 27.3967C24.7829 27.1029 25.424 26.7098 26.0632 26.0707C26.7023 25.4316 27.0954 24.7904 27.3893 24.0344C27.6734 23.3032 27.8678 22.4674 27.9235 21.2438C27.9795 20.0176 27.9927 19.6261 27.9927 16.5039C27.9927 13.3816 27.9795 12.9901 27.9235 11.7639C27.8678 10.5403 27.6734 9.70454 27.3893 8.97329C27.0954 8.2173 26.7023 7.57617 26.0632 6.93701C25.424 6.2979 24.7829 5.9048 24.0269 5.61104C23.2956 5.32683 22.46 5.13247 21.2363 5.07666C20.0101 5.02071 19.6186 5.00748 16.4964 5.00748ZM16.4964 7.07889C19.566 7.07889 19.9297 7.09062 21.1419 7.14593C22.2627 7.19704 22.8715 7.38432 23.2766 7.54177C23.8132 7.75032 24.1962 7.99944 24.5985 8.40176C25.0008 8.80403 25.2499 9.187 25.4585 9.72361C25.6159 10.1287 25.8032 10.7374 25.8543 11.8583C25.9096 13.0706 25.9214 13.4342 25.9214 16.5039C25.9214 19.5735 25.9096 19.9371 25.8543 21.1493C25.8032 22.2702 25.6159 22.8789 25.4585 23.2841C25.2499 23.8207 25.0008 24.2036 24.5985 24.606C24.1962 25.0083 23.8132 25.2573 23.2766 25.466C22.8715 25.6234 22.2627 25.8107 21.1419 25.8618C19.9299 25.9171 19.5663 25.9288 16.4964 25.9288C13.4265 25.9288 13.063 25.9171 11.8508 25.8618C10.73 25.8107 10.1212 25.6234 9.71614 25.466C9.17952 25.2573 8.79655 25.0083 8.39428 24.606C7.99201 24.2036 7.74285 23.8207 7.53429 23.2841C7.37685 22.8789 7.18956 22.2702 7.13845 21.1493C7.08314 19.9371 7.07142 19.5735 7.07142 16.5039C7.07142 13.4342 7.08314 13.0706 7.13845 11.8583C7.18956 10.7374 7.37685 10.1287 7.53429 9.72361C7.74285 9.187 7.99196 8.80403 8.39428 8.40176C8.79655 7.99944 9.17952 7.75032 9.71614 7.54177C10.1212 7.38432 10.73 7.19704 11.8508 7.14593C13.0631 7.09062 13.4267 7.07889 16.4964 7.07889ZM16.4964 20.336C14.3799 20.336 12.6643 18.6203 12.6643 16.5039C12.6643 14.3874 14.3799 12.6717 16.4964 12.6717C18.6128 12.6717 20.3285 14.3874 20.3285 16.5039C20.3285 18.6203 18.6128 20.336 16.4964 20.336ZM16.4964 10.6003C13.2359 10.6003 10.5928 13.2434 10.5928 16.5039C10.5928 19.7643 13.2359 22.4073 16.4964 22.4073C19.7568 22.4073 22.3999 19.7643 22.3999 16.5039C22.3999 13.2434 19.7568 10.6003 16.4964 10.6003ZM22.6331 11.7466C23.3951 11.7466 24.0128 11.129 24.0128 10.3671C24.0128 9.60515 23.3951 8.98748 22.6331 8.98748C21.8713 8.98748 21.2536 9.60515 21.2536 10.3671C21.2536 11.129 21.8713 11.7466 22.6331 11.7466Z" fill="white"/>
</g>
<defs>
<clipPath id="clip0_10_294">
<rect width="23" height="23" fill="white" transform="translate(5 5)"/>
</clipPath>
</defs>
</svg>
