<svg width="14" height="11" viewBox="0 0 14 11" fill="none" xmlns="http://www.w3.org/2000/svg">
<path d="M12.1957 10.0318H1.63589C0.906891 10.0318 0.315918 9.44086 0.315918 8.71185V1.31998C0.315918 0.590973 0.906891 0 1.63589 0H12.1957C12.9247 0 13.5157 0.590973 13.5157 1.31998V8.71185C13.5157 9.44086 12.9247 10.0318 12.1957 10.0318ZM1.63589 0.52799C1.19849 0.52799 0.843908 0.882576 0.843908 1.31998V8.71185C0.843908 9.14926 1.19849 9.50384 1.63589 9.50384H12.1957C12.6331 9.50384 12.9877 9.14926 12.9877 8.71185V1.31998C12.9877 0.882576 12.6331 0.52799 12.1957 0.52799H1.63589Z" fill="white"/>
<path d="M6.9159 6.26198C6.62061 6.26154 6.33688 6.1471 6.12392 5.94254L0.925858 0.982064C0.833442 0.879302 0.835923 0.722655 0.931548 0.622872C1.02717 0.523089 1.18357 0.513948 1.29017 0.601909L6.48823 5.56239C6.72724 5.79169 7.10456 5.79169 7.34357 5.56239L12.5416 0.601909C12.6482 0.513948 12.8046 0.52309 12.9003 0.622872C12.9959 0.722655 12.9984 0.879301 12.9059 0.982062L7.70788 5.94254C7.49492 6.1471 7.2112 6.26154 6.9159 6.26198Z" fill="white"/>
</svg>
