<svg width="34" height="34" viewBox="0 0 34 34" fill="none" xmlns="http://www.w3.org/2000/svg">
<path fill-rule="evenodd" clip-rule="evenodd" d="M3.77778 34H30.2222C32.3086 34 34 32.3086 34 30.2222V3.77778C34 1.69137 32.3086 0 30.2222 0H3.77778C1.69137 0 0 1.69137 0 3.77778V30.2222C0 32.3086 1.69137 34 3.77778 34Z" fill="#CC2127"/>
<path fill-rule="evenodd" clip-rule="evenodd" d="M17.9848 21.3061C16.9702 21.3061 16.0158 20.6572 15.6887 19.9215C15.6887 19.9215 15.1428 22.4798 15.0278 22.9738C14.6214 24.719 13.4242 26.4654 13.331 26.6077C13.2665 26.7078 13.1233 26.6763 13.1083 26.5454C13.0822 26.3226 12.777 24.1205 13.136 22.3244C13.316 21.4225 14.345 16.2732 14.345 16.2732C14.345 16.2732 14.0446 15.5639 14.0446 14.5161C14.0446 12.8703 14.8521 11.6419 15.8576 11.6419C16.7118 11.6419 17.1252 12.4002 17.1252 13.309C17.1252 14.3248 16.5776 15.8421 16.2948 17.2499C16.06 18.4281 16.796 19.3884 17.7781 19.3884C19.5586 19.3884 20.758 16.686 20.758 13.4839C20.758 11.0509 19.3716 9.22894 16.8477 9.22894C13.9978 9.22894 12.2205 11.7407 12.2205 14.5475C12.2205 15.5142 12.4623 16.1977 12.841 16.7251C13.0151 16.968 13.0391 17.0655 12.9762 17.3437C12.9305 17.5482 12.8277 18.0404 12.7845 18.2355C12.7217 18.5168 12.5289 18.6175 12.3137 18.513C11.0019 17.8806 10.3889 16.1807 10.3889 14.2706C10.3889 11.1164 12.6413 7.33334 17.106 7.33334C20.694 7.33334 23.0556 10.4008 23.0556 13.6948C23.0556 18.0517 21.0061 21.3061 17.9848 21.3061Z" fill="white"/>
</svg>
