<svg width="10" height="14" viewBox="0 0 10 14" fill="none" xmlns="http://www.w3.org/2000/svg">
<path d="M4.7109 0C2.11331 0 0 2.11331 0 4.7109C0 5.58854 0.243103 6.44504 0.703201 7.18811L4.44275 13.2143C4.51437 13.3298 4.64058 13.3999 4.7763 13.3999H4.77942C4.91632 13.3988 5.04279 13.3265 5.11311 13.2091L8.75734 7.12445C9.19205 6.39709 9.4218 5.5625 9.4218 4.7109C9.4218 2.11331 7.30849 0 4.7109 0ZM8.08354 6.72136L4.77036 12.2532L1.37053 6.77444C0.987564 6.15595 0.779915 5.4424 0.779915 4.7109C0.779915 2.54624 2.54623 0.779916 4.7109 0.779916C6.87556 0.779916 8.63927 2.54624 8.63927 4.7109C8.63927 5.4207 8.44531 6.11601 8.08354 6.72136Z" fill="white"/>
<path d="M4.71092 2.35544C3.41212 2.35544 2.35547 3.41209 2.35547 4.71089C2.35547 6.00139 3.39494 7.06634 4.71092 7.06634C6.04314 7.06634 7.06638 5.98721 7.06638 4.71089C7.06638 3.41209 6.00972 2.35544 4.71092 2.35544ZM4.71092 6.28642C3.84053 6.28642 3.13539 5.57893 3.13539 4.71089C3.13539 3.84502 3.84505 3.13535 4.71092 3.13535C5.57678 3.13535 6.28384 3.84502 6.28384 4.71089C6.28384 5.56625 5.59511 6.28642 4.71092 6.28642Z" fill="white"/>
</svg>
