<svg width="79" height="33" viewBox="0 0 79 33" fill="none" xmlns="http://www.w3.org/2000/svg">
<g filter="url(#filter0_d_99_14)">
<path d="M4.675 24V1.25H10.6281V9.89062H17.4719V1.25H23.4406V24H17.4719V14.625H10.6281V24H4.675ZM30.3125 24V1.25H36.4688L42.6875 13.5156C42.8438 13.8385 42.9792 14.1667 43.0938 14.5C43.2188 14.8229 43.3333 15.151 43.4375 15.4844H43.5469C43.526 15.1302 43.5156 14.7917 43.5156 14.4688C43.5156 14.1354 43.5156 13.7865 43.5156 13.4219V1.25H48.5469V24H42.375L36.125 11.7812C35.9688 11.4583 35.8333 11.1354 35.7188 10.8125C35.6042 10.4896 35.5 10.1615 35.4062 9.82812H35.2969C35.3177 10.1823 35.3281 10.526 35.3281 10.8594C35.3385 11.1823 35.3438 11.526 35.3438 11.8906V24H30.3125ZM54.7625 13.2969V11.9531C54.7625 8.28646 55.6948 5.52083 57.5594 3.65625C59.4344 1.78125 61.9344 0.84375 65.0594 0.84375C67.8927 0.84375 70.101 1.52083 71.6844 2.875C73.2781 4.22917 74.0646 5.98438 74.0438 8.14062V8.625H68.2313V8.34375C68.2313 7.38542 67.95 6.625 67.3875 6.0625C66.825 5.5 65.9656 5.21875 64.8094 5.21875C63.6219 5.21875 62.6792 5.66146 61.9813 6.54688C61.2833 7.43229 60.9344 8.84375 60.9344 10.7812V14.5156C60.9344 16.4531 61.3198 17.875 62.0906 18.7812C62.8719 19.6875 63.9292 20.1406 65.2625 20.1406C65.9292 20.1406 66.4969 20.0677 66.9656 19.9219C67.4448 19.7656 67.9031 19.5156 68.3406 19.1719V15.7969H64.9656V11.6875L74.075 11.6719V21.0938C73.3563 21.875 72.2625 22.625 70.7938 23.3438C69.3354 24.0521 67.4813 24.4062 65.2313 24.4062C62.0021 24.4062 59.45 23.474 57.575 21.6094C55.7 19.7344 54.7625 16.9635 54.7625 13.2969Z" fill="white"/>
</g>
<defs>
<filter id="filter0_d_99_14" x="0.674988" y="0.84375" width="77.4" height="31.5625" filterUnits="userSpaceOnUse" color-interpolation-filters="sRGB">
<feFlood flood-opacity="0" result="BackgroundImageFix"/>
<feColorMatrix in="SourceAlpha" type="matrix" values="0 0 0 0 0 0 0 0 0 0 0 0 0 0 0 0 0 0 127 0" result="hardAlpha"/>
<feOffset dy="4"/>
<feGaussianBlur stdDeviation="2"/>
<feComposite in2="hardAlpha" operator="out"/>
<feColorMatrix type="matrix" values="0 0 0 0 0 0 0 0 0 0 0 0 0 0 0 0 0 0 0.25 0"/>
<feBlend mode="normal" in2="BackgroundImageFix" result="effect1_dropShadow_99_14"/>
<feBlend mode="normal" in="SourceGraphic" in2="effect1_dropShadow_99_14" result="shape"/>
</filter>
</defs>
</svg>
