<svg width="34" height="34" viewBox="0 0 34 34" fill="none" xmlns="http://www.w3.org/2000/svg">
<path d="M34 31.875C34 33.048 33.048 34 31.875 34H2.125C0.952 34 0 33.048 0 31.875V2.125C0 0.952 0.952 0 2.125 0H31.875C33.048 0 34 0.952 34 2.125V31.875Z" fill="#55ACEE"/>
<path d="M27.987 10.8938C27.1774 11.2158 26.3094 11.4308 25.3941 11.5288C26.3292 11.0308 27.0442 10.2398 27.3809 9.29782C26.5096 9.75882 25.5438 10.0948 24.5152 10.2758C23.6923 9.49082 22.5197 8.99982 21.2227 8.99982C18.73 8.99982 16.7124 10.8068 16.7124 13.0378C16.7124 13.3518 16.752 13.6628 16.8268 13.9598C13.0789 13.7878 9.75452 12.1808 7.52909 9.73882C7.14187 10.3358 6.91745 11.0288 6.91745 11.7708C6.91745 13.1698 7.7161 14.4058 8.92397 15.1308C8.18583 15.1088 7.48949 14.9278 6.88225 14.6248C6.88115 14.6418 6.88115 14.6588 6.88115 14.6768C6.88115 16.6318 8.43664 18.2658 10.5004 18.6368C10.123 18.7268 9.72482 18.7788 9.31119 18.7788C9.02078 18.7788 8.73916 18.7548 8.46415 18.7068C9.03618 20.3108 10.7017 21.4778 12.6752 21.5118C11.1373 22.5938 9.19019 23.2398 7.07696 23.2398C6.71394 23.2398 6.35312 23.2218 6 23.1838C7.99552 24.3288 10.3684 24.9968 12.9161 24.9968C21.2117 24.9968 25.7495 18.8428 25.7495 13.5058C25.7495 13.3328 25.744 13.1558 25.7363 12.9848C26.6163 12.4138 27.3831 11.7028 27.987 10.8938Z" fill="white"/>
</svg>
