<svg width="15" height="14" viewBox="0 0 15 14" fill="none" xmlns="http://www.w3.org/2000/svg">
<path d="M6.18564 8.21048C6.18564 8.21048 7.86136 9.86221 8.54364 9.99393L9.94409 8.59348C9.94409 8.59348 10.4947 8.06686 11.0812 8.60544L13.3673 10.8916C13.3673 10.8916 13.7384 11.5739 13.3075 11.9928L12.1943 13.106C12.1943 13.106 10.2313 14.3628 7.08334 12.3519C7.08334 12.3519 5.59912 11.5739 4.22266 10.1734" stroke="white"/>
<path d="M6.30531 8.33015C6.30531 8.33015 4.65357 6.65443 4.50996 5.97214L5.91035 4.57175C5.91035 4.57175 6.43696 4.02113 5.89838 3.43464L3.60023 1.14848C3.60023 1.14848 2.91798 0.777442 2.49903 1.20832L1.38587 2.32148C1.38587 2.32148 0.129035 4.28446 2.15192 7.43244C2.15192 7.43244 2.92994 8.91663 4.34235 10.2931" stroke="white"/>
</svg>
